<svg xmlns="http://www.w3.org/2000/svg" viewBox="0 0 142 142"><path d="M128.31,11.41c.89,0,1.79,0,2.69.05a77.12,77.12,0,0,1-17.07,50.87A81.94,81.94,0,0,1,67.21,91.51L51,75.25A81,81,0,0,1,76.82,31.31a78,78,0,0,1,51.49-19.9m0-8C85.17,3.41,48.68,37,42.33,78l22.19,22.18C108.67,93.3,144.2,51.45,138.43,4a84.69,84.69,0,0,0-10.12-.62Z"/><path d="M62.11,27.82C34.74,41.06-1.52,62.13,2.28,65.48c5.38-1.85,32.41-3.1,36.71,9A88.23,88.23,0,0,1,62.11,27.82Z"/><path d="M114.65,80.36A88.33,88.33,0,0,1,68,103.48c12,4.3,10.81,31.32,9,36.71C80.34,144,101.4,107.72,114.65,80.36Z"/><polygon points="33.79 108.97 41.2 81.32 61.44 101.56 33.79 108.97"/></svg>
